<svg style="position: absolute; width: 0; height: 0; overflow: hidden;" version="1.1" xmlns="http://www.w3.org/2000/svg" xmlns:xlink="http://www.w3.org/1999/xlink">
<defs>
<symbol id="icon-hide" viewBox="0 0 16 16">
<title>hide</title>
<path d="M13.5 0c1.381 0 2.5 1.119 2.5 2.5 0 0.563-0.186 1.082-0.5 1.5l-1 1-3.5-3.5 1-1c0.418-0.314 0.937-0.5 1.5-0.5zM1 11.5l-1 4.5 4.5-1 9.25-9.25-3.5-3.5-9.25 9.25zM11.181 5.681l-7 7-0.862-0.862 7-7 0.862 0.862z"></path>
</symbol>
<symbol id="icon-email" viewBox="0 0 16 16">
<title>email</title>
<path d="M14.5 2h-13c-0.825 0-1.5 0.675-1.5 1.5v10c0 0.825 0.675 1.5 1.5 1.5h13c0.825 0 1.5-0.675 1.5-1.5v-10c0-0.825-0.675-1.5-1.5-1.5zM6.23 8.6l-4.23 3.295v-7.838l4.23 4.543zM2.756 4h10.488l-5.244 3.938-5.244-3.938zM6.395 8.777l1.605 1.723 1.605-1.723 3.29 4.223h-9.79l3.29-4.223zM9.77 8.6l4.23-4.543v7.838l-4.23-3.295z"></path>
</symbol>
<symbol id="icon-phone" viewBox="0 0 16 16">
<title>phone</title>
<path d="M11.5 0h-7c-0.825 0-1.5 0.675-1.5 1.5v13c0 0.825 0.675 1.5 1.5 1.5h7c0.825 0 1.5-0.675 1.5-1.5v-13c0-0.825-0.675-1.5-1.5-1.5zM6 0.75h4v0.5h-4v-0.5zM8 15c-0.552 0-1-0.448-1-1s0.448-1 1-1 1 0.448 1 1-0.448 1-1 1zM12 12h-8v-10h8v10z"></path>
</symbol>
<symbol id="icon-user" viewBox="0 0 16 16">
<title>user</title>
<path d="M9 11.041v-0.825c1.102-0.621 2-2.168 2-3.716 0-2.485 0-4.5-3-4.5s-3 2.015-3 4.5c0 1.548 0.898 3.095 2 3.716v0.825c-3.392 0.277-6 1.944-6 3.959h14c0-2.015-2.608-3.682-6-3.959z"></path>
</symbol>
<symbol id="icon-password" viewBox="0 0 16 16">
<title>password</title>
<path d="M11 0c-2.761 0-5 2.239-5 5 0 0.313 0.029 0.619 0.084 0.916l-6.084 6.084v3c0 0.552 0.448 1 1 1h1v-1h2v-2h2v-2h2l1.298-1.298c0.531 0.192 1.105 0.298 1.702 0.298 2.761 0 5-2.239 5-5s-2.239-5-5-5zM12.498 5.002c-0.828 0-1.5-0.672-1.5-1.5s0.672-1.5 1.5-1.5 1.5 0.672 1.5 1.5-0.672 1.5-1.5 1.5z"></path>
</symbol>
<symbol id="icon-checkmark" viewBox="0 0 16 16">
<title>checkmark</title>
<path d="M13.5 2l-7.5 7.5-3.5-3.5-2.5 2.5 6 6 10-10z"></path>
</symbol>
</defs>
</svg>
